<?xml version="1.0" encoding="UTF-8" standalone="no"?>
<!-- Created with Inkscape (http://www.inkscape.org/) -->

<svg
   xmlns:dc="http://purl.org/dc/elements/1.1/"
   xmlns:cc="http://creativecommons.org/ns#"
   xmlns:rdf="http://www.w3.org/1999/02/22-rdf-syntax-ns#"
   xmlns:svg="http://www.w3.org/2000/svg"
   xmlns="http://www.w3.org/2000/svg"
   xmlns:sodipodi="http://sodipodi.sourceforge.net/DTD/sodipodi-0.dtd"
   xmlns:inkscape="http://www.inkscape.org/namespaces/inkscape"
   width="128"
   height="128"
   viewBox="0 0 33.866665 33.866667"
   version="1.1"
   id="svg8"
   inkscape:version="0.92.2 5c3e80d, 2017-08-06"
   sodipodi:docname="premium.svg">
  <defs
     id="defs2" />
  <sodipodi:namedview
     id="base"
     pagecolor="#ffffff"
     bordercolor="#666666"
     borderopacity="1.0"
     inkscape:pageopacity="0.0"
     inkscape:pageshadow="2"
     inkscape:zoom="3.828481"
     inkscape:cx="66.541138"
     inkscape:cy="66.541138"
     inkscape:document-units="mm"
     inkscape:current-layer="layer1"
     showgrid="false"
     units="px"
     inkscape:window-width="1440"
     inkscape:window-height="855"
     inkscape:window-x="0"
     inkscape:window-y="1"
     inkscape:window-maximized="1" />
  <metadata
     id="metadata5">
    <rdf:RDF>
      <cc:Work
         rdf:about="">
        <dc:format>image/svg+xml</dc:format>
        <dc:type
           rdf:resource="http://purl.org/dc/dcmitype/StillImage" />
        <dc:title></dc:title>
      </cc:Work>
    </rdf:RDF>
  </metadata>
  <g
     inkscape:label="Layer 1"
     inkscape:groupmode="layer"
     id="layer1"
     transform="translate(0,-263.13332)">
    <path
       style="fill:#d4aa00;stroke-width:0.06067136"
       d="m 10.098811,295.42771 c -0.09887,-0.0832 -0.5416637,-0.72721 -0.9839857,-1.43116 -1.216521,-1.93605 -1.239903,-1.94939 -3.606778,-2.05661 -1.6961918,-0.0768 -1.8655163,-0.11208 -1.9796693,-0.41237 -0.046082,-0.12118 -0.038642,-0.22165 0.029192,-0.39435 0.050066,-0.12746 0.9830012,-1.77288 2.0731893,-3.65649 1.090186,-1.88362 1.968195,-3.46115 1.951125,-3.50563 -0.01708,-0.0444 -0.275488,-0.16832 -0.574264,-0.27519 -0.579949,-0.20745 -0.978427,-0.49055 -1.145641,-0.81389 -0.143886,-0.27825 -0.121262,-0.93518 0.06162,-1.7893 0.29111,-1.3596 0.226565,-1.60586 -0.717253,-2.73667 -0.6937349,-0.83119 -0.8529558,-1.12763 -0.8514149,-1.5852 0.00144,-0.45988 0.2013648,-0.84125 0.9059949,-1.72914 0.317784,-0.40042 0.637581,-0.85091 0.710664,-1.00107 0.180644,-0.37118 0.171462,-0.91683 -0.03178,-1.88844 -0.175073,-0.83697 -0.196889,-1.19959 -0.09115,-1.51527 0.157763,-0.47103 0.571284,-0.74334 1.700058,-1.11953 1.370295,-0.45668 1.545341,-0.63189 2.073647,-2.07561 0.31087,-0.84951 0.5759057,-1.27432 0.9073797,-1.45439 0.283478,-0.15401 0.961749,-0.12603 1.741677,0.0719 0.350378,0.0888 0.841822,0.17711 1.092093,0.19604 l 0.455025,0.0344 0.586035,-0.45831 c 1.250173,-0.97771 1.817513,-1.28683 2.356528,-1.28398 0.449223,0.002 0.727542,0.14932 1.591319,0.8402 0.391368,0.31302 0.839122,0.62908 0.995015,0.70236 0.397086,0.18665 0.859069,0.17195 1.842684,-0.0586 0.617238,-0.1447 0.923774,-0.18685 1.244022,-0.17108 0.722486,0.0356 0.949861,0.28981 1.455855,1.62789 0.533044,1.4096 0.638328,1.51328 2.006703,1.97616 0.514541,0.17404 1.070577,0.40312 1.235631,0.50904 0.580594,0.37256 0.673214,0.89556 0.397941,2.24714 -0.176694,0.86753 -0.191357,1.35449 -0.05128,1.70444 0.05525,0.13793 0.386673,0.63675 0.736619,1.10848 0.760395,1.02499 0.921306,1.33904 0.921342,1.7981 2.4e-5,0.42387 -0.158842,0.70649 -0.903803,1.60779 -0.303382,0.36706 -0.608185,0.78751 -0.677319,0.93434 -0.173998,0.36953 -0.164572,0.85347 0.03491,1.78881 0.348091,1.63272 0.144613,2.09397 -1.126037,2.55251 -0.344143,0.1242 -0.565197,0.2361 -0.554255,0.28058 0.0096,0.0407 0.907788,1.60252 1.995074,3.4707 1.087287,1.86818 2.01714,3.49917 2.066351,3.62444 0.07644,0.19451 0.0774,0.25303 0.006,0.40082 -0.04562,0.0952 -0.153642,0.20693 -0.240051,0.24835 -0.09546,0.0457 -0.678487,0.0993 -1.485889,0.13659 -0.730841,0.0337 -1.476549,0.076 -1.657155,0.0938 -0.370735,0.0367 -0.949596,0.31701 -1.248259,0.60447 -0.104611,0.10064 -0.552208,0.76302 -0.994702,1.47188 -0.442506,0.70887 -0.863283,1.32999 -0.935078,1.38028 -0.208487,0.14602 -0.483363,0.11484 -0.663921,-0.0754 -0.08716,-0.0917 -1.086998,-1.76342 -2.221955,-3.71481 -1.134957,-1.95138 -2.091162,-3.55717 -2.124892,-3.56841 -0.03371,-0.0108 -0.206139,0.0945 -0.38311,0.23512 -0.871999,0.69258 -1.431779,0.70306 -2.40852,0.0451 -0.432623,-0.29142 -0.452414,-0.29824 -0.554496,-0.19131 -0.05826,0.061 -1.011628,1.68077 -2.118669,3.5995 -1.107038,1.91873 -2.093365,3.56368 -2.19184,3.65545 -0.222116,0.20699 -0.417907,0.21167 -0.650945,0.0155 z m 7.451024,-9.70231 c 1.381123,-0.0758 2.9426,-0.62416 4.220352,-1.48205 2.38962,-1.60439 3.865049,-4.18025 4.022711,-7.02301 0.07355,-1.32679 -0.05164,-2.28129 -0.456759,-3.48306 -1.100468,-3.26407 -3.904955,-5.57406 -7.36968,-6.07022 -0.666678,-0.0955 -2.33646,-0.0415 -2.964821,0.0958 -3.704318,0.80968 -6.3638627,3.46882 -7.1682207,7.16713 -0.106838,0.49121 -0.130059,0.80135 -0.131011,1.74979 -0.0012,1.24111 0.07946,1.79075 0.418734,2.85155 0.980621,3.06611 3.6317547,5.41985 6.8395567,6.07233 0.556337,0.11316 1.412638,0.19295 1.800407,0.16773 0.150162,-0.01 0.505091,-0.0305 0.788731,-0.0461 z m -1.971816,-1.46242 c -3.006659,-0.48701 -5.509728,-2.75529 -6.2590877,-5.67199 -0.678239,-2.63988 0.07497,-5.39049 2.0022297,-7.31185 1.145754,-1.14224 2.410887,-1.82218 3.971099,-2.13423 0.742409,-0.14849 2.163053,-0.14544 2.894628,0.006 2.988235,0.61942 5.249325,2.77147 6.015666,5.72554 0.209354,0.80701 0.264235,2.21218 0.119538,3.061 -0.537775,3.15495 -2.892786,5.59748 -6.044197,6.26884 -0.644636,0.13733 -2.022785,0.16617 -2.699876,0.0565 z m -0.462104,-3.40024 c 1.567158,-0.80396 1.832043,-0.80413 3.365483,-0.002 0.548127,0.28668 1.063608,0.52123 1.145527,0.52123 0.154134,0 0.301685,-0.12918 0.371589,-0.32534 0.02215,-0.0621 -0.04611,-0.60757 -0.151739,-1.21207 -0.175225,-1.00298 -0.18547,-1.13073 -0.11725,-1.46119 0.120139,-0.58147 0.272372,-0.80497 1.163692,-1.70813 0.708522,-0.71791 0.842914,-0.88329 0.842914,-1.03717 0,-0.19074 -0.126327,-0.34418 -0.333694,-0.40534 -0.06669,-0.0196 -0.577055,-0.10352 -1.13403,-0.18636 -1.612253,-0.23974 -1.842853,-0.40911 -2.590836,-1.90288 -0.525147,-1.04876 -0.651883,-1.22625 -0.875574,-1.22625 -0.215083,0 -0.348079,0.18865 -0.885156,1.25557 -0.73958,1.4692 -0.974972,1.639 -2.601562,1.87658 -1.123727,0.16413 -1.386411,0.24968 -1.441585,0.46952 -0.0602,0.23985 0.106079,0.46454 0.878439,1.18704 1.171668,1.09602 1.298537,1.48673 1.0119,3.1163 -0.08679,0.49361 -0.157867,0.9858 -0.157867,1.09376 0,0.26197 0.150307,0.46596 0.343324,0.46596 0.08499,0 0.609811,-0.23361 1.166401,-0.51914 z"
       id="path4844"
       inkscape:connector-curvature="0" />
  </g>
</svg>
